<svg viewBox="0 0 85.18 85.18" xmlns="http://www.w3.org/2000/svg"><path d="m71.76 11.57a54.23 54.23 0 0 0 -5.83 2.73 36.67 36.67 0 1 1 -51.63 51.63 52.49 52.49 0 0 0 -2.73 5.83 44 44 0 0 0 6.43 5.61c-6.35 2.63-10 2.32-11.25 1.06-3.89-3.89 3.74-23.15 26.13-45.55 9.12-9.12 22.42-20.21 34.3-25.07a42.59 42.59 0 0 0 -63 53.26c-5 10-5.56 17.46-1.57 21.45 5.22 5.2 14.93 1.72 21.49-1.52a41.73 41.73 0 0 0 18.49 4.22 42.58 42.58 0 0 0 29.17-73.65zm-65.84 30.43a36.74 36.74 0 0 1 48.6-34.11 147.43 147.43 0 0 0 -25.74 20.89 147.43 147.43 0 0 0 -20.89 25.74 37 37 0 0 1 -1.97-12.52z" fill="#FC5858"/></svg>